# xmcd
#
# Track frame offsets:
#	150
#	15529
#	30144
#	43990
#	56437
#	69853
#	85324
#	98285
#	115413
#	131451
#
# Disc length: 1960 seconds
#
# Revision: 0
# Processed by: cddbd v1.5.2PL0 Copyright (c) Steve Scherf et al.
# Submitted via: EasyCDDAExtractor 4.5.0.2
#
DISCID=6f07a60a
DTITLE=Con Hunley - Oh Girl
DYEAR=2005
DGENRE=Country
TTITLE0=Just Like Old Times
TTITLE1=Oh Girl
TTITLE2=My Heart Will Know
TTITLE3=Confidential
TTITLE4=Stop, You're Killing Me
TTITLE5=Ain't No Woman (Like the One I've Got)
TTITLE6=Tonight I Took Your Memory Off the Wall
TTITLE7=It Used to Be Me
TTITLE8=She Never Laid Love on Me
TTITLE9=I Still Have Dreamin'
EXTD=
EXTT0=
EXTT1=
EXTT2=
EXTT3=
EXTT4=
EXTT5=
EXTT6=
EXTT7=
EXTT8=
EXTT9=
PLAYORDER=
